<?xml version="1.0" encoding="utf-8"?>
<!-- Designed by Vexels.com - 2016 All Rights Reserved - https://vexels.com/terms-and-conditions/  -->

<svg version="1.0" id="Capa_1" xmlns="http://www.w3.org/2000/svg" xmlns:xlink="http://www.w3.org/1999/xlink" x="0px" y="0px"
	 width="1200px" height="1199.999px" viewBox="0 0 1200 1199.999" enable-background="new 0 0 1200 1199.999" xml:space="preserve">
<g>
	<path fill-rule="evenodd" clip-rule="evenodd" fill="#1D994B" d="M636.241,561.546c-15.931,5.232-33.706-1.91-41.367-17.376
		c-7.708-15.571-2.466-34.17,11.572-43.603c6.762-6.306,21.813-10.361,30.176-10.107c42.55,1.298,62.762,0.808,63.52,1.736
		c1.018,1.241-12.574,17.065-37.193,51.466c-4.935,6.889-17.567,16.558-26.708,17.908V561.546z"/>
	<path fill-rule="evenodd" clip-rule="evenodd" fill="#1D994B" d="M643.245,475.592c-9.883-1.967-17.071-10.932-16.494-21.288
		c0.556-10.419,8.789-18.594,18.905-19.384c5.402-1.298,14.469,1.033,18.763,3.623c21.853,13.252,32.567,18.945,32.696,19.661
		c0.161,0.946-11.613,5.215-34.638,15.928c-4.613,2.14-14.068,3.461-19.249,1.477L643.245,475.592z"/>
	<path fill-rule="evenodd" clip-rule="evenodd" fill="#1D994B" d="M552.704,631.755c12.995-5.561,20.261-19.978,16.485-34.031
		c-3.802-14.128-17.463-22.973-31.603-21.121c-7.786-0.225-19.566,5.596-24.712,10.413c-26.18,24.519-39.233,35.462-39.201,36.478
		c0.047,1.339,17.449,3.779,52.187,11.821c6.958,1.604,20.328,0.686,26.864-3.536L552.704,631.755z"/>
	<path fill-rule="evenodd" clip-rule="evenodd" fill="#42B64F" d="M576.563,714.328c0-16.754,0.6-39.801,1.24-64.597
		c4.203-161.857,10.56-406.662-160.403-419.937l2.795-37.528C626.82,208.311,619.9,474.577,615.331,650.614
		c-0.571,21.848-1.096,42.155-1.096,63.714H576.563z"/>
	<path fill-rule="evenodd" clip-rule="evenodd" fill="#42B64F" d="M560.371,720.219c0-10.846,0.6-25.125,1.244-40.499
		c4.079-97.33,10.246-244.545-159.884-252.72l1.757-37.528c207.462,9.981,200.349,179.574,195.652,291.714
		c-0.565,13.54-1.093,26.128-1.093,39.034H560.371z"/>
	<path fill-rule="evenodd" clip-rule="evenodd" fill="#42B64F" d="M614.214,706.973c0-7.702-0.528-15.894-1.096-24.709
		c-0.484-7.448-0.987-15.345-1.295-25.083h-0.003c-2.328-74.358,12.888-166.282,197.239-172.057l1.18,37.528
		c-150.178,4.696-162.688,75.834-160.896,133.358v0.069c0.23,7.2,0.782,15.75,1.298,23.838c0.649,9.998,1.249,19.292,1.249,27.057
		H614.214z"/>
	<path fill-rule="evenodd" clip-rule="evenodd" fill="#42B64F" d="M593.61,723.167c0-18.53-0.531-36.12-1.096-55.02
		C587.907,514.73,580.941,282.692,787.791,268.8l2.51,37.522C619.556,317.791,625.862,528.085,630.039,667.12
		c0.652,21.455,1.243,41.405,1.243,56.047H593.61z"/>
	<path fill-rule="evenodd" clip-rule="evenodd" fill="#C7864A" d="M387.888,699.617H799.95c8.904,0,17.567,5.89,16.191,12.883
		l-68.418,346.566c-1.379,6.997-7.28,12.894-16.185,12.894h-274.68c-8.896,0-14.789-5.896-16.177-12.894l-68.972-346.566
		C370.312,705.507,378.986,699.617,387.888,699.617z"/>
	<path fill-rule="evenodd" clip-rule="evenodd" fill="#9E673A" d="M368.169,673.131h455.919c7.771,0,14.131,6.346,14.131,14.123
		v51.212c0,7.777-6.36,14.123-14.131,14.123H368.169c-7.771,0-14.128-6.346-14.128-14.123v-51.212
		C354.04,679.477,360.398,673.131,368.169,673.131z"/>
	<path fill-rule="evenodd" clip-rule="evenodd" fill="#1D994B" d="M406.069,339.119c34.958,7.84,59.742,40.395,56.817,77.15
		c-2.931,36.985-32.904,65.352-68.978,67.261c-19.295,4.131-51.342-4.898-66.399-14.532
		c-76.562-48.997-114.159-70.227-114.539-72.765c-0.513-3.381,41.739-17.503,124.569-53.595
		c16.592-7.228,50.329-11.117,68.577-3.594L406.069,339.119z"/>
	<path fill-rule="evenodd" clip-rule="evenodd" fill="#1D994B" d="M446.599,138.419c33.098,13.718,51.931,50.029,42.766,85.746
		c-9.233,35.941-43.617,58.758-79.486,54.454c-19.719,0.779-49.744-13.621-62.926-25.689
		c-67.043-61.383-100.449-88.74-100.391-91.302c0.084-3.421,44.122-10.107,131.91-31.471c17.59-4.275,51.489-2.336,68.185,8.204
		L446.599,138.419z"/>
	<path fill-rule="evenodd" clip-rule="evenodd" fill="#1D994B" d="M785.697,347.173c-34.332,10.228-71.851-6.069-87.257-39.57
		c-15.504-33.703-3.219-73.106,27.334-92.386c14.818-13.033,47.202-20.797,65.035-19.754c90.744,5.348,133.926,5.515,135.489,7.54
		c2.103,2.712-27.865,35.664-82.515,107.616c-10.953,14.417-38.488,34.286-58.086,36.645V347.173z"/>
	<path fill-rule="evenodd" clip-rule="evenodd" fill="#1D994B" d="M792.533,569.657c-34.744-8.728-58.68-41.912-54.826-78.58
		c3.891-36.893,34.571-64.498,70.682-65.485c19.396-3.634,51.204,6.225,65.998,16.24c75.292,50.935,112.335,73.135,112.644,75.673
		c0.427,3.398-42.172,16.436-125.901,50.387c-16.777,6.813-50.598,9.825-68.652,1.846L792.533,569.657z"/>
	<path fill-rule="evenodd" clip-rule="evenodd" fill="#1D994B" d="M661.019,375.47c-2.882-13.609,4.61-27.64,18.06-32.549
		c13.542-4.962,28.412,1.038,34.926,13.488c4.586,6.138,6.579,18.922,5.616,25.805c-4.919,34.967-6.335,51.674-7.171,52.228
		c-1.117,0.733-12.935-11.902-39.091-35.324c-5.238-4.702-12.069-15.986-12.375-23.653L661.019,375.47z"/>
	<path fill-rule="evenodd" clip-rule="evenodd" fill="#1D994B" d="M675.266,294.316c4.462,15.952-3.372,33.178-18.977,40.043
		c-15.718,6.894-33.833,0.912-42.509-13.378c-5.916-6.946-9.254-21.986-8.625-30.224c3.185-41.918,3.6-61.879,4.549-62.589
		c1.267-0.94,16.272,13.159,49.118,38.999c6.582,5.181,15.55,18.069,16.488,27.149H675.266z"/>
	<path fill-rule="evenodd" clip-rule="evenodd" fill="#1D994B" d="M560.758,251.746c-14.847,7.373-33.228,2.902-42.891-11.146
		c-9.724-14.146-7.228-33.063,5.178-44.26c5.723-7.102,19.869-13.194,28.078-14.128c41.777-4.708,61.467-8.037,62.343-7.24
		c1.166,1.062-9.891,18.455-29.122,55.556c-3.854,7.43-14.844,18.651-23.578,21.271L560.758,251.746z"/>
	<path fill-rule="evenodd" clip-rule="evenodd" fill="#1D994B" d="M511.744,307.816c11.939-7.384,27.784-5.042,37.029,6.052
		c9.308,11.163,8.679,27.311-0.906,37.724c-4.272,6.433-15.718,12.675-22.577,14.094c-34.857,7.24-51.201,11.578-51.997,10.984
		c-1.07-0.819,6.897-16.338,20.22-49.118c2.665-6.571,11.057-16.88,18.222-19.771L511.744,307.816z"/>
	<path fill-rule="evenodd" clip-rule="evenodd" fill="#1D994B" d="M473.411,475.28c19.113-11.803,44.486-8.071,59.286,9.698
		c14.893,17.873,13.889,43.724-1.454,60.391c-6.839,10.303-25.171,20.295-36.143,22.569c-55.801,11.584-81.961,18.536-83.242,17.578
		c-1.711-1.304,11.042-26.151,32.367-78.638c4.269-10.505,17.697-27.034,29.174-31.649L473.411,475.28z"/>
	<path fill-rule="evenodd" clip-rule="evenodd" fill="#1D994B" d="M673.336,606.937c-11.112-14.284-10.315-34.926,2.616-48.334
		c13.021-13.47,33.815-14.919,48.495-4.061c8.852,4.57,18.443,18.381,21.219,26.959c14.126,43.695,21.974,64.054,21.319,65.156
		c-0.897,1.483-21.905-6.571-65.788-19.09c-8.797-2.515-23.197-11.821-27.902-20.625L673.336,606.937z"/>
	<path fill-rule="evenodd" clip-rule="evenodd" fill="#1D994B" d="M566.025,435.578c6.98-7.257,7.754-18.738,1.376-26.907
		c-6.421-8.215-17.841-10.228-26.599-5.088c-5.166,2.019-11.284,9.104-13.323,13.702c-10.364,23.353-15.894,34.17-15.591,34.81
		c0.404,0.877,12.504-2.354,37.525-6.732c5.011-0.871,13.526-5.186,16.636-9.779L566.025,435.578z"/>
</g>
</svg>
